<svg width="410" height="61" viewBox="0 0 410 61" fill="none" xmlns="http://www.w3.org/2000/svg">
<g clip-path="url(#clip0_309_2)">
<path d="M8.05164 60.4104H0V8.90479H21.3028V16.2644H8.05164V60.4104Z" fill="white"/>
<path d="M55.3522 60.4104H47.2301L45.8334 51.0693H35.9507L34.554 60.4104H27.1597L35.3639 8.90479H47.1597L55.3522 60.4104ZM36.9719 44.0753H44.7301L40.8451 18.0336L36.9719 44.0753Z" fill="white"/>
<path d="M80.0938 21.5599C80.0938 19.2482 79.7182 17.6914 78.9553 16.8894C78.2041 16.0756 77.183 15.6746 75.9154 15.6746C74.6478 15.6746 73.6267 16.052 72.8755 16.8068C72.1126 17.5734 71.737 18.8826 71.737 20.7461V26.2658H64.1196V21.2651C64.1196 17.1017 65.129 13.8936 67.1595 11.6645C69.1901 9.4354 72.1713 8.31494 76.1267 8.31494C80.0821 8.31494 83.0633 9.4354 85.0938 11.6645C87.1243 13.8936 88.1337 17.1017 88.1337 21.2651V22.586C88.1337 28.0821 86.2558 31.6086 82.4999 33.1773C84.5422 34.0618 85.9976 35.4182 86.8544 37.2581C87.7112 39.098 88.1337 41.3389 88.1337 43.9926V48.0381C88.1337 52.2014 87.1243 55.4095 85.0938 57.6386C83.0633 59.8677 80.0821 60.9882 76.1267 60.9882C72.1713 60.9882 69.1783 59.8677 67.1595 57.6386C65.129 55.4095 64.1196 52.2014 64.1196 48.0381V41.563H71.737V48.557C71.737 50.4205 72.1126 51.7297 72.8755 52.4963C73.6267 53.2511 74.6361 53.6404 75.9154 53.6404C77.183 53.6404 78.1924 53.2511 78.9553 52.4609C79.7065 51.6707 80.0938 50.1374 80.0938 47.8258V43.7803C80.0938 41.3743 79.683 39.6877 78.8497 38.7088C78.0163 37.7299 76.6783 37.2345 74.8239 37.2345H73.5797V29.8749H75.2581C76.7722 29.8749 77.9577 29.4857 78.8027 28.6955C79.6595 27.9052 80.0821 26.4899 80.0821 24.4259V21.5599H80.0938Z" fill="white"/>
<path d="M122.418 41.1974V48.0381C122.418 52.2014 121.409 55.4095 119.378 57.6386C117.347 59.8677 114.366 60.9882 110.411 60.9882C106.455 60.9882 103.462 59.8677 101.444 57.6386C99.4132 55.4095 98.4038 52.2014 98.4038 48.0381V21.2651C98.4038 17.1017 99.4132 13.8936 101.444 11.6645C103.462 9.4354 106.455 8.31494 110.411 8.31494C114.366 8.31494 117.347 9.4354 119.378 11.6645C121.409 13.8936 122.418 17.1017 122.418 21.2651V26.2658H114.801V20.7461C114.801 18.8826 114.425 17.5734 113.662 16.8068C112.911 16.052 111.89 15.6746 110.622 15.6746C109.355 15.6746 108.333 16.052 107.582 16.8068C106.831 17.5734 106.444 18.8826 106.444 20.7461V48.557C106.444 50.4205 106.819 51.7179 107.582 52.4609C108.333 53.1922 109.343 53.5696 110.622 53.5696C111.89 53.5696 112.899 53.204 113.662 52.4609C114.413 51.7297 114.801 50.4205 114.801 48.557V41.1974H122.418Z" fill="white"/>
<path d="M131.209 8.90479H156.103V16.2644H147.676V60.4104H139.624V16.2644H131.209V8.90479Z" fill="white"/>
<path d="M177.477 8.90479C181.526 8.90479 184.542 9.97806 186.514 12.1364C188.498 14.2948 189.484 17.4556 189.484 21.6308V28.33C189.484 32.4933 188.498 35.666 186.514 37.8244C184.531 39.9827 181.526 41.056 177.477 41.056H173.662V60.4104H165.61V8.90479H177.477ZM173.674 16.2644V33.6964H177.488C178.756 33.6964 179.73 33.3543 180.423 32.6703C181.103 31.9862 181.444 30.7124 181.444 28.8371V21.1119C181.444 19.2484 181.103 17.9746 180.423 17.2787C179.73 16.5947 178.756 16.2526 177.488 16.2526H173.674V16.2644Z" fill="white"/>
<path d="M198.275 21.2651C198.275 17.1017 199.319 13.8936 201.42 11.6645C203.521 9.4354 206.549 8.31494 210.493 8.31494C214.448 8.31494 217.477 9.4354 219.577 11.6645C221.678 13.8936 222.723 17.1017 222.723 21.2651V48.0499C222.723 52.2132 221.678 55.4213 219.577 57.6504C217.477 59.8795 214.448 61 210.493 61C206.538 61 203.509 59.8795 201.42 57.6504C199.319 55.4213 198.275 52.2132 198.275 48.0499V21.2651ZM206.326 48.557C206.326 50.4205 206.702 51.7297 207.465 52.4963C208.216 53.2511 209.237 53.6403 210.505 53.6403C211.772 53.6403 212.782 53.2629 213.545 52.4963C214.296 51.7415 214.671 50.4205 214.671 48.557V20.7461C214.671 18.8826 214.296 17.5734 213.545 16.8068C212.782 16.052 211.772 15.6746 210.505 15.6746C209.237 15.6746 208.228 16.052 207.465 16.8068C206.714 17.5734 206.326 18.8826 206.326 20.7461V48.557Z" fill="white"/>
<path d="M241.984 60.4103H233.709V8.90468H240.88V39.7349L249.155 8.90468H259.261V60.4103H252.007V23.105L241.984 60.4103ZM255.446 6.02688H237.723V0H255.446V6.02688Z" fill="white"/>
<path d="M279.026 60.4104H270.974V8.90479H296.385V60.4104H288.181V16.2644H279.026V60.4104Z" fill="white"/>
<path d="M319.953 8.90479C324.002 8.90479 327.019 9.97806 328.991 12.1364C330.974 14.2948 331.96 17.4556 331.96 21.6308V28.33C331.96 32.4933 330.974 35.666 328.991 37.8244C327.007 39.9827 324.002 41.056 319.953 41.056H316.139V60.4104H308.087V8.90479H319.953ZM316.15 16.2644V33.6964H319.965C321.232 33.6964 322.207 33.3543 322.899 32.6703C323.58 31.9862 323.92 30.7124 323.92 28.8371V21.1119C323.92 19.2484 323.58 17.9746 322.899 17.2787C322.207 16.5947 321.232 16.2526 319.965 16.2526H316.15V16.2644Z" fill="white"/>
<path d="M340.74 21.2651C340.74 17.1017 341.784 13.8936 343.885 11.6645C345.986 9.4354 349.014 8.31494 352.958 8.31494C356.913 8.31494 359.941 9.4354 362.042 11.6645C364.143 13.8936 365.188 17.1017 365.188 21.2651V48.0499C365.188 52.2132 364.143 55.4213 362.042 57.6504C359.941 59.8795 356.913 61 352.958 61C349.002 61 345.974 59.8795 343.885 57.6504C341.784 55.4213 340.74 52.2132 340.74 48.0499V21.2651ZM348.803 48.557C348.803 50.4205 349.178 51.7297 349.941 52.4963C350.693 53.2511 351.714 53.6403 352.981 53.6403C354.249 53.6403 355.258 53.2629 356.021 52.4963C356.772 51.7415 357.148 50.4205 357.148 48.557V20.7461C357.148 18.8826 356.772 17.5734 356.021 16.8068C355.258 16.052 354.249 15.6746 352.981 15.6746C351.714 15.6746 350.704 16.052 349.941 16.8068C349.19 17.5734 348.803 18.8826 348.803 20.7461V48.557Z" fill="white"/>
<path d="M393.31 45.467L398.803 8.90479H410V60.4104H402.394V23.4707L396.831 60.4104H389.214L383.204 23.9897V60.4104H376.186V8.90479H387.383L393.31 45.467Z" fill="white"/>
</g>
<defs>
<clipPath id="clip0_309_2">
<rect width="410" height="61" fill="white"/>
</clipPath>
</defs>
</svg>
